<svg width="32" height="32" viewBox="0 0 32 32" fill="none" xmlns="http://www.w3.org/2000/svg" class="transform cursor-pointer transition-all" style="width: 40px; height: 40px;"><path d="M28 8H4C3.44772 8 3 8.44772 3 9V23C3 23.5523 3.44772 24 4 24H28C28.5523 24 29 23.5523 29 23V9C29 8.44772 28.5523 8 28 8Z" stroke="#8CA4B5" stroke-width="1.5" stroke-linecap="round" stroke-linejoin="round"></path><path fill-rule="evenodd" clip-rule="evenodd" d="M20 16C20 18.2091 18.2091 20 16 20C13.7909 20 12 18.2091 12 16C12 13.7909 13.7909 12 16 12C18.2091 12 20 13.7909 20 16ZM16.3155 13.6942V13H15.8326V13.6917C15.6479 13.7124 15.4816 13.7587 15.3337 13.8305C15.1255 13.9316 14.9646 14.0758 14.8509 14.2632C14.7371 14.4505 14.6803 14.6737 14.6803 14.9326C14.6803 15.1811 14.7328 15.3926 14.838 15.5674C14.9453 15.7421 15.0966 15.8884 15.2918 16.0063C15.4893 16.1242 15.7232 16.2242 15.9936 16.3063C16.2167 16.3779 16.3948 16.4558 16.5279 16.54C16.6609 16.6242 16.7564 16.7168 16.8144 16.8179C16.8723 16.9189 16.9013 17.0326 16.9013 17.1589C16.9013 17.3084 16.8659 17.4389 16.7951 17.5505C16.7242 17.6621 16.6212 17.7484 16.4861 17.8095C16.353 17.8684 16.1899 17.8979 15.9968 17.8979C15.8916 17.8979 15.7854 17.8842 15.6781 17.8568C15.573 17.8274 15.4764 17.7789 15.3884 17.7116C15.3004 17.6421 15.2296 17.5495 15.176 17.4337C15.1245 17.3158 15.0987 17.1674 15.0987 16.9884H14.5C14.5 17.2537 14.5429 17.4779 14.6288 17.6611C14.7146 17.8421 14.8294 17.9884 14.9732 18.1C15.117 18.2095 15.2779 18.2884 15.456 18.3368C15.5625 18.3658 15.6698 18.3861 15.7779 18.3977V19H16.2575V18.3965C16.4536 18.3762 16.6306 18.3321 16.7886 18.2642C17.0139 18.1674 17.1888 18.0263 17.3133 17.8411C17.4378 17.6537 17.5 17.4242 17.5 17.1526C17.5 16.9021 17.4496 16.6926 17.3487 16.5242C17.2479 16.3537 17.1009 16.2105 16.9077 16.0947C16.7146 15.9768 16.4796 15.8747 16.2028 15.7884C15.9667 15.7105 15.7811 15.6316 15.6459 15.5516C15.5129 15.4695 15.4185 15.3779 15.3627 15.2768C15.3069 15.1758 15.279 15.0579 15.279 14.9232C15.279 14.7779 15.3069 14.6505 15.3627 14.5411C15.4185 14.4295 15.5043 14.3432 15.6202 14.2821C15.7382 14.2211 15.8873 14.1905 16.0676 14.1905C16.1964 14.1905 16.3101 14.2147 16.4088 14.2632C16.5075 14.3095 16.5912 14.3768 16.6599 14.4653C16.7285 14.5516 16.78 14.6537 16.8144 14.7716C16.8487 14.8895 16.8659 15.0189 16.8659 15.16H17.4582C17.4582 14.92 17.426 14.7084 17.3616 14.5253C17.2994 14.3421 17.2082 14.1874 17.088 14.0611C16.97 13.9347 16.8251 13.84 16.6534 13.7768C16.5494 13.7373 16.4368 13.7097 16.3155 13.6942Z" fill="#8CA4B5"></path><path d="M21 8L29 15" stroke="#8CA4B5" stroke-width="1.5" stroke-linecap="round" stroke-linejoin="round"></path><path d="M21 24L29 17" stroke="#8CA4B5" stroke-width="1.5" stroke-linecap="round" stroke-linejoin="round"></path><path d="M11 8L3 15" stroke="#8CA4B5" stroke-width="1.5" stroke-linecap="round" stroke-linejoin="round"></path><path d="M11 24L3 17" stroke="#8CA4B5" stroke-width="1.5" stroke-linecap="round" stroke-linejoin="round"></path></svg>