<svg width="32" height="32" x="0" y="0" viewBox="0 0 3.75 3.75" xml:space="preserve" class="transform cursor-pointer transition-all" id="svg7" sodipodi:docname="tie.svg" inkscape:version="1.3 (0e150ed6c4, 2023-07-21)" inkscape:export-filename="tie.png" inkscape:export-xdpi="1536" inkscape:export-ydpi="1536" xmlns:inkscape="http://www.inkscape.org/namespaces/inkscape" xmlns:sodipodi="http://sodipodi.sourceforge.net/DTD/sodipodi-0.dtd" xmlns="http://www.w3.org/2000/svg" xmlns:svg="http://www.w3.org/2000/svg" style="width: 40px; height: 40px;"><defs id="defs7"></defs><sodipodi:namedview id="namedview7" pagecolor="#505050" bordercolor="#eeeeee" borderopacity="1" inkscape:showpageshadow="0" inkscape:pageopacity="0" inkscape:pagecheckerboard="0" inkscape:deskcolor="#505050" inkscape:zoom="22.627417" inkscape:cx="11.976621" inkscape:cy="19.666407" inkscape:window-width="2560" inkscape:window-height="1382" inkscape:window-x="0" inkscape:window-y="0" inkscape:window-maximized="1" inkscape:current-layer="svg7" showgrid="false"><inkscape:grid id="grid8" units="px" originx="0" originy="0" spacingx="0.1171875" spacingy="0.1171875" empcolor="#0099e5" empopacity="0.30196078" color="#0099e5" opacity="0.14901961" empspacing="5" dotted="false" gridanglex="30" gridanglez="30" visible="false"></inkscape:grid></sodipodi:namedview><path id="rect21" d="M 1.875 0.46875 C 1.4866834 0.46875 1.171875 0.78355879 1.171875 1.171875 C 1.171875 1.5601915 1.4866836 1.875 1.875 1.875 C 2.2633166 1.875 2.578125 1.5601913 2.578125 1.171875 C 2.578125 0.78355859 2.2633164 0.4687503 1.875 0.46875 z M 1.875 0.60058594 A 0.10083377 0.10083373 0 0 1 1.9745636 0.70014954 L 1.9745636 0.72898865 C 2.0463515 0.74604563 2.0996182 0.78044207 2.1329498 0.81733704 C 2.1801978 0.86963998 2.1915436 0.92880249 2.1915436 0.92880249 A 0.08402927 0.08402923 0 0 1 2.1212769 1.0253906 A 0.08402927 0.08402923 0 0 1 2.024231 0.95787048 C 2.024231 0.95787048 2.0234166 0.94715147 2.0068359 0.92880249 C 1.990253 0.91044751 1.9609112 0.88760376 1.875 0.88760376 C 1.7676351 0.88760376 1.740463 0.95556539 1.7399597 0.98716736 C 1.739009 1.0468643 1.7597788 1.0571834 1.7960358 1.0723114 C 1.8322927 1.0874444 1.875 1.0869598 1.875 1.0869598 C 1.875 1.0869598 1.944759 1.0854947 2.0185089 1.1162567 C 2.0922588 1.1470237 2.178678 1.2329736 2.1766663 1.3593292 C 2.1750463 1.4623358 2.1014585 1.5727848 1.9745636 1.611557 L 1.9745636 1.6436005 A 0.10083377 0.10083373 0 0 1 1.875 1.7431641 A 0.10083377 0.10083373 0 0 1 1.7754364 1.6436005 L 1.7754364 1.6147614 C 1.7036446 1.5977051 1.6506045 1.5633129 1.6172791 1.526413 C 1.5700386 1.4741046 1.5584564 1.4149475 1.5584564 1.4149475 A 0.08402927 0.08402923 0 0 1 1.628952 1.3183594 A 0.08402927 0.08402923 0 0 1 1.725769 1.3856506 C 1.725769 1.3856506 1.726594 1.3965985 1.7431641 1.4149475 C 1.759731 1.4332945 1.7890887 1.4561462 1.875 1.4561462 C 1.9823649 1.4561462 2.0095369 1.3881846 2.0100403 1.3565826 C 2.0109884 1.2968907 1.9902302 1.2865726 1.9539642 1.2714386 C 1.9176963 1.2563056 1.875 1.2567902 1.875 1.2567902 C 1.875 1.2567902 1.805236 1.2582553 1.7314911 1.2274933 C 1.6577472 1.1967216 1.5710936 1.1107727 1.5731049 0.98442078 C 1.5747439 0.88141558 1.6485396 0.77096515 1.7754364 0.73219299 L 1.7754364 0.70014954 A 0.10083377 0.10083373 0 0 1 1.875 0.60058594 z M 1.2888336 1.7021942 L 0.92948914 1.8516541 L 1.40625 3.515625 L 2.34375 3.515625 L 2.8205109 1.8516541 L 2.4611664 1.7021942 C 2.4154003 1.752718 2.2618103 1.8580627 2.2618103 1.8580627 L 2.0624542 2.2618103 L 1.6875458 2.2618103 L 1.4881897 1.8580627 C 1.4881897 1.8580627 1.3345997 1.7527178 1.2888336 1.7021942 z M 1.6875458 2.3703003 L 2.0624542 2.3703003 L 2.1796417 3.1040955 L 1.875 3.391571 L 1.5703583 3.1040955 L 1.6875458 2.3703003 z " style="fill: rgb(140, 164, 181); fill-opacity: 1; stroke: none; stroke-width: 0.248379; stroke-linecap: round; stroke-linejoin: round; stroke-dasharray: none; stroke-opacity: 1;"></path><g id="path1"></g><g id="path2" style="stroke: none; stroke-opacity: 1;"></g></svg>