<svg width="32" height="32" viewBox="0 0 32 32" fill="none" xmlns="http://www.w3.org/2000/svg" class="transform cursor-pointer transition-all" style="width: 40px; height: 40px;"><path fill-rule="evenodd" clip-rule="evenodd" d="M15.0124 5.15289C14.2512 5.22235 13.4955 5.37212 12.7584 5.60218L14.1006 5.8965C14.4839 5.98053 14.8672 5.75518 14.9801 5.37942C15.003 5.30314 15.0133 5.22702 15.0124 5.15289ZM7.5675 9.11031C8.55388 7.90219 9.79475 6.91217 11.2126 6.2178L14.4606 6.82254C14.7692 6.88001 15.0389 7.06592 15.2024 7.33393L15.3104 7.51103C15.4931 7.81055 15.4643 8.19327 15.2387 8.46203C14.9759 8.7752 14.9849 9.2344 15.2599 9.537L15.6447 9.96053C15.8901 10.2307 16.25 10.3673 16.6129 10.3281L16.9727 10.2892C17.2827 10.2558 17.53 10.0155 17.5725 9.70667L17.6251 9.3248C17.6814 8.91556 18.1858 8.75269 18.4708 9.05167C18.5493 9.13399 18.6538 9.18666 18.7667 9.20076L19.2665 9.26318C19.6208 9.30744 19.9155 9.557 20.0176 9.89924C20.1084 10.2038 20.0318 10.5337 19.8162 10.7671L16.6535 14.1919C16.5666 14.2859 16.5227 14.4118 16.5322 14.5395L16.5368 14.6026C16.569 15.0371 16.02 15.2517 15.749 14.9105C15.6651 14.8048 15.5375 14.7432 15.4025 14.7432H14.719C14.2422 14.7432 13.8557 15.1297 13.8557 15.6064C13.8557 15.9866 14.1043 16.3219 14.468 16.4324L14.9658 16.5837C15.2535 16.6711 15.51 16.8396 15.7045 17.069L15.9052 17.3056C16.3758 17.8606 17.056 18.1948 17.7829 18.2281L17.9648 18.2364C18.6852 18.2694 19.3602 18.5978 19.8308 19.1443L20.0547 19.4043C20.2222 19.5988 20.4399 19.7434 20.684 19.8223C21.2611 20.0088 21.652 20.546 21.652 21.1524V21.4141C21.652 21.8565 21.4851 22.2827 21.1847 22.6075L17.6935 26.3812C17.5818 26.5019 17.4942 26.6408 17.4335 26.7906C16.8931 26.8622 16.3487 26.8931 15.8048 26.8833V25.1234C15.8048 24.3567 15.5556 23.6107 15.0949 22.9979C14.6567 22.4151 14.4094 21.7112 14.3867 20.9824L14.3525 19.8859C14.343 19.5797 14.4484 19.2811 14.6481 19.0488L14.6987 18.9899C15.0495 18.5817 15.064 17.9827 14.7334 17.5579C14.5598 17.3349 14.3089 17.1849 14.0302 17.1376L13.4829 17.0447C12.8963 16.945 12.3627 16.6442 11.9738 16.1937L10.4587 14.4388C9.87218 13.7594 9.4991 12.922 9.38621 12.0316L9.27386 11.1453C9.20138 10.5736 8.91553 10.0504 8.47359 9.6805L8.16557 9.42272C7.98814 9.27422 7.78364 9.16915 7.5675 9.11031ZM21.2805 6.47269C22.6132 7.21126 23.7713 8.21887 24.6843 9.425C24.0747 9.98716 23.1075 9.92082 22.5826 9.26461C22.3672 8.99547 22.2555 8.65809 22.2676 8.31363L22.2685 8.28759C22.2821 7.89769 22.1445 7.51761 21.8845 7.22681L21.4893 6.78494C21.4045 6.69012 21.3345 6.58486 21.2805 6.47269ZM16.8926 5.14429C17.2547 5.17399 17.6157 5.22184 17.9741 5.28783C17.9783 5.2935 17.9825 5.29924 17.9866 5.30505L19.2923 7.15666C19.5074 7.46176 19.2961 7.88358 18.9229 7.89396C18.8086 7.89714 18.697 7.8583 18.6093 7.7848L16.8731 6.32918C16.5136 6.02778 16.5088 5.47638 16.863 5.16875C16.8727 5.1603 16.8826 5.15215 16.8926 5.14429Z" fill="url(#paint0_linear_293_6697)"></path><circle cx="16" cy="16" r="12" stroke="url(#paint0_linear_293_6697)" stroke-width="1.5"></circle><defs><linearGradient id="paint0_linear_293_6697" x1="9.52164" y1="-72.0927" x2="50.7795" y2="-69.6029" gradientUnits="userSpaceOnUse"><stop stop-color="#ECC879"></stop><stop offset="1" stop-color="#D46B32"></stop></linearGradient></defs></svg>