<svg width="26" height="24" viewBox="0 0 26 24" fill="none" xmlns="http://www.w3.org/2000/svg" class="transform cursor-pointer transition-all" style="width: 40px; height: 40px;"><path fill-rule="evenodd" clip-rule="evenodd" d="M12.6293 0.0285845C11.7358 0.189641 11.0079 0.962051 10.8601 1.90598C10.7141 2.83835 11.229 3.81448 12.085 4.22808L12.4383 4.39882L12.4393 5.53726L12.4403 6.67569L9.17123 6.67674C7.24505 6.67732 5.75607 6.69946 5.5466 6.7306C5.11299 6.79509 4.47276 7.10118 4.13858 7.40382C3.84067 7.67354 3.55132 8.1196 3.38901 8.55922C3.27234 8.87521 3.26155 8.98345 3.24206 10.0349L3.22105 11.1696L2.17021 11.1865C1.18903 11.2022 1.10487 11.2112 0.900842 11.3233C0.564012 11.5083 0.296787 11.7855 0.141448 12.1108L0 12.4071V15.3383V18.2694L0.121198 18.5453C0.271194 18.8868 0.694572 19.2969 1.0285 19.4241C1.22058 19.4974 1.479 19.5217 2.25147 19.5392L3.23092 19.5614V20.4891C3.23092 21.5861 3.27885 21.9054 3.52241 22.4306C3.87237 23.1853 4.64688 23.7965 5.44087 23.9446C5.64729 23.9831 8.04499 24.0006 13.0221 24C21.0279 23.999 20.688 24.0122 21.3073 23.6777C21.7704 23.4275 22.2545 22.9116 22.4776 22.4306C22.7212 21.9054 22.7691 21.5861 22.7691 20.4891V19.5614L23.7485 19.5392C24.521 19.5217 24.7794 19.4974 24.9715 19.4241C25.3054 19.2969 25.7288 18.8868 25.8788 18.5453L26 18.2694V15.3383V12.4071L25.8586 12.1108C25.7032 11.7855 25.436 11.5083 25.0992 11.3233C24.8951 11.2112 24.811 11.2022 23.8298 11.1865L22.779 11.1696L22.7579 10.0349C22.7385 8.98345 22.7277 8.87521 22.611 8.55922C22.4477 8.11693 22.157 7.67009 21.8606 7.40592C21.5107 7.09401 20.8795 6.79027 20.454 6.72903C20.2523 6.69998 18.6802 6.67732 16.8288 6.67674L13.5597 6.67569L13.5607 5.53726L13.5617 4.39882L13.915 4.22808C15.1974 3.60841 15.5592 1.92069 14.6534 0.783512C14.2036 0.2189 13.3467 -0.100752 12.6293 0.0285845ZM20.6541 7.9351C21.0105 8.07228 21.36 8.41805 21.5387 8.8102L21.6751 9.1096V15.3383V21.567L21.5428 21.8573C21.3539 22.2715 21.1305 22.5082 20.7433 22.7043L20.4053 22.8755H13H5.59473L5.25673 22.7043C4.86953 22.5082 4.64611 22.2715 4.45719 21.8573L4.32485 21.567V15.3383C4.32485 9.45767 4.32994 9.09787 4.41623 8.90023C4.63044 8.40963 4.9659 8.07302 5.40673 7.90646C5.56451 7.84685 6.85494 7.83397 12.9853 7.83088C20.3266 7.82722 20.3757 7.8279 20.6541 7.9351ZM3.23092 14.5326V16.789L2.27691 16.7685C1.64243 16.7549 1.28453 16.7261 1.20841 16.6825L1.09393 16.617V14.6369C1.09393 12.6934 1.09597 12.6541 1.20272 12.5145C1.26255 12.4363 1.35989 12.3521 1.41896 12.3276C1.47808 12.303 1.90991 12.2814 2.37867 12.2796L3.23092 12.2763V14.5326ZM24.7577 12.4734L24.9061 12.6444V14.6307V16.617L24.7916 16.6825C24.7155 16.7261 24.3576 16.7549 23.7231 16.7685L22.7691 16.789V14.5293V12.2697L23.6892 12.2861L24.6094 12.3025L24.7577 12.4734Z" fill="#8CA4B5"></path><path d="M8.43561 11.8479C8.61781 11.6008 9.00257 11.3106 9.25341 11.2311C9.53193 11.1428 10.1993 11.1966 10.4455 11.3274C10.7779 11.5038 11.0483 11.7828 11.2049 12.1108C11.3963 12.5117 11.4043 13.1054 11.2239 13.5205C10.9767 14.0893 10.3599 14.4956 9.74365 14.4956C8.43194 14.4956 7.65011 12.9131 8.43561 11.8479Z" fill="#8CA4B5"></path><path d="M14.9483 11.8479C15.1305 11.6008 15.5153 11.3106 15.7661 11.2311C16.0447 11.1428 16.712 11.1966 16.9583 11.3274C17.2906 11.5038 17.561 11.7828 17.7177 12.1108C17.909 12.5117 17.917 13.1054 17.7366 13.5205C17.4894 14.0893 16.8726 14.4956 16.2564 14.4956C14.9447 14.4956 14.1628 12.9131 14.9483 11.8479Z" fill="#8CA4B5"></path><rect x="10" y="19" width="6" height="1" fill="#8CA4B5"></rect></svg>