<svg width="33" height="32" viewBox="0 0 33 32" fill="none" xmlns="http://www.w3.org/2000/svg" class="transform cursor-pointer transition-all" style="width: 40px; height: 40px;"><path fill-rule="evenodd" clip-rule="evenodd" d="M14.5 9.75C14.5 9.33579 14.8358 9 15.25 9H18.75C19.1642 9 19.5 9.33579 19.5 9.75C19.5 10.1642 19.8358 10.5 20.25 10.5H20.5C21.0523 10.5 21.5 10.9477 21.5 11.5V14.5C21.5 15.0523 21.0523 15.5 20.5 15.5H20C19.7239 15.5 19.5 15.7239 19.5 16C19.5 16.2761 19.7239 16.5 20 16.5H20.5C21.0523 16.5 21.5 16.9477 21.5 17.5V20.5C21.5 21.0523 21.0523 21.5 20.5 21.5H20.25C19.8358 21.5 19.5 21.8358 19.5 22.25C19.5 22.6642 19.1642 23 18.75 23H15.25C14.8358 23 14.5 22.6642 14.5 22.25C14.5 21.8358 14.1642 21.5 13.75 21.5H13.5C12.9477 21.5 12.5 21.0523 12.5 20.5V17V15V11.5C12.5 10.9477 12.9477 10.5 13.5 10.5H13.75C14.1642 10.5 14.5 10.1642 14.5 9.75ZM14.5 20C14.5 20.5523 14.9477 21 15.5 21H18.5C19.0523 21 19.5 20.5523 19.5 20V18C19.5 17.4477 19.0523 17 18.5 17H15.5C14.9477 17 14.5 17.4477 14.5 18V20ZM14.5 12C14.5 11.4477 14.9477 11 15.5 11H18.5C19.0523 11 19.5 11.4477 19.5 12V14C19.5 14.5523 19.0523 15 18.5 15H15.5C14.9477 15 14.5 14.5523 14.5 14V12Z" fill="url(#paint0_linear_294_6558)"></path><circle cx="17" cy="16" r="12" stroke="url(#paint0_linear_294_6558)" stroke-width="1.5"></circle><defs><linearGradient id="paint0_linear_294_6558" x1="13.5275" y1="-40.7368" x2="35.2472" y2="-39.6666" gradientUnits="userSpaceOnUse"><stop stop-color="#ECC879"></stop><stop offset="1" stop-color="#D46B32"></stop></linearGradient></defs></svg>

