<svg width="33" height="32" viewBox="0 0 33 32" fill="none" xmlns="http://www.w3.org/2000/svg" class="transform cursor-pointer transition-all" style="width: 40px; height: 40px;"><path d="M15.3599 15.4476C14.893 16.4486 13.7031 16.8817 12.702 16.4149C11.7009 15.9481 11.2678 14.7582 11.7346 13.7571C12.6409 14.1797 12.5461 14.1356 13.5472 14.6024C14.5483 15.0692 14.4535 15.025 15.3599 15.4476Z" fill="#8CA4B5"></path><path d="M18.1094 15.4476C18.5762 16.4486 19.7662 16.8817 20.7672 16.4149C21.7683 15.9481 22.2014 14.7582 21.7346 13.7571C20.8283 14.1797 20.9231 14.1356 19.922 14.6024C18.921 15.0692 19.0157 15.025 18.1094 15.4476Z" fill="#8CA4B5"></path><path fill-rule="evenodd" clip-rule="evenodd" d="M4.70321 7.20576C4.54105 5.56688 5.47191 3.82511 7.79473 2L8.90594 2.96763C8.01789 4.49003 7.95267 5.38382 8.10298 5.87986C8.24344 6.34342 8.64443 6.68147 9.31816 6.90893C9.98939 7.13554 10.7951 7.20043 11.4662 7.20043C11.7952 7.20043 12.0786 7.18494 12.2785 7.16955L12.3483 7.16392C12.6913 6.84573 13.0435 6.55305 13.4015 6.29302C14.4327 5.54384 15.5798 5.01644 16.7295 5.01644C17.8791 5.01644 19.0262 5.54384 20.0574 6.29302C20.4078 6.54754 20.7527 6.83334 21.0888 7.14373C21.1005 7.14507 21.1158 7.14678 21.1344 7.14876C21.1866 7.15428 21.2649 7.16188 21.3646 7.16955C21.5645 7.18494 21.8479 7.20043 22.1769 7.20043C22.848 7.20043 23.6537 7.13554 24.3249 6.90893C24.9987 6.68147 25.3997 6.34342 25.5401 5.87986C25.6904 5.38382 25.6252 4.49003 24.7372 2.96763L25.8484 2C28.1712 3.82511 29.102 5.56688 28.9399 7.20576C28.8212 8.40496 28.1301 9.36658 27.3362 10.0974C27.413 10.1591 27.4882 10.2204 27.5616 10.2803L27.5618 10.2805L27.5619 10.2805C27.6633 10.3633 27.7612 10.4432 27.8553 10.5173C28.2825 10.8539 28.7427 11.1727 29.3696 11.4235L30.6431 11.9329L29.527 12.7302C28.8696 13.1997 27.8344 13.7959 26.6744 13.8868C26.2786 13.9178 25.8662 13.89 25.4524 13.7774C25.7639 14.6775 25.9507 15.5614 25.9507 16.3555V16.6661L25.731 16.8858C25.5361 17.0807 25.2592 17.3076 24.9805 17.5359L24.9805 17.5359L24.9802 17.5362L24.9802 17.5362C24.8435 17.6482 24.7065 17.7605 24.5785 17.8695C24.1518 18.233 23.6974 18.6589 23.2778 19.1985C22.4523 20.2598 21.7151 21.819 21.7151 24.2972V24.6079L21.4954 24.8276L21.495 24.828L21.494 24.829L21.49 24.8336C21.4864 24.8379 21.4814 24.8442 21.4748 24.853C21.4613 24.8714 21.4442 24.8969 21.4218 24.9333C21.3904 24.9844 21.3675 25.0244 21.3394 25.0735L21.3394 25.0735C21.3152 25.1159 21.2871 25.165 21.2463 25.2339C21.0968 25.486 20.8837 25.8117 20.5324 26.1191C19.8147 26.7471 18.6815 27.165 16.7295 27.165C14.7774 27.165 13.6442 26.7471 12.9265 26.1191C12.5752 25.8117 12.3621 25.486 12.2126 25.2339C12.1718 25.165 12.1437 25.1158 12.1195 25.0735C12.0914 25.0244 12.0685 24.9844 12.0371 24.9333C12.0147 24.8969 11.9976 24.8714 11.9841 24.853C11.9775 24.8442 11.9725 24.8379 11.9689 24.8336L11.9649 24.829C11.964 24.828 11.9635 24.8276 11.9635 24.8276L11.7438 24.6079V24.2972C11.7438 21.819 11.0066 20.2598 10.1811 19.1985C9.76145 18.6589 9.30714 18.233 8.88042 17.8695C8.75233 17.7604 8.61516 17.648 8.47841 17.5359L8.47839 17.5359C8.19976 17.3076 7.92284 17.0807 7.7279 16.8858L7.50823 16.6661V16.3555C7.50823 15.5755 7.6884 14.709 7.98993 13.8255C7.64385 13.8974 7.30043 13.9127 6.96868 13.8868C5.80867 13.7959 4.77355 13.1997 4.11614 12.7302L3 11.9329L4.27353 11.4235C4.90042 11.1727 5.36062 10.8539 5.78783 10.5173C5.8818 10.4433 5.97964 10.3634 6.08092 10.2808L6.08125 10.2805L6.08129 10.2805C6.15474 10.2205 6.23001 10.1591 6.30694 10.0974C5.51297 9.36658 4.82187 8.40496 4.70321 7.20576ZM22.9215 9.17724C24.2623 8.84875 25.2136 8.91803 26.0165 9.25564C26.8091 8.61489 27.3666 7.87229 27.4472 7.05806C27.4879 6.64612 27.4116 6.14538 27.101 5.55684C27.0902 5.82247 27.0483 6.07502 26.9757 6.31484C26.6349 7.43964 25.6992 8.02812 24.8048 8.33012C24.0482 8.58553 23.2226 8.67353 22.5406 8.69482C22.6701 8.85314 22.7972 9.01412 22.9215 9.17724ZM8.83835 8.33012C9.53003 8.56363 10.2795 8.65721 10.9241 8.68781C10.8023 8.83646 10.6827 8.98747 10.5655 9.1404C9.30639 8.8546 8.398 8.93128 7.62659 9.25564C6.83395 8.61489 6.27649 7.87229 6.19592 7.05806C6.15516 6.64612 6.2315 6.14538 6.54212 5.55684C6.55294 5.82247 6.59476 6.07502 6.66743 6.31484C7.00825 7.43964 7.94385 8.02812 8.83835 8.33012ZM10.4706 12.0064C10.4564 12.0278 10.4421 12.049 10.4277 12.0699C10.1721 12.526 9.94395 12.9846 9.74903 13.4352C9.32826 14.4078 9.07895 15.3049 9.02121 16.038C9.11498 16.1183 9.22001 16.204 9.33951 16.3015C9.48675 16.4216 9.65595 16.5597 9.85312 16.7276C10.3199 17.1252 10.8583 17.6258 11.3651 18.2775C12.3603 19.557 13.19 21.3628 13.2413 24.0335C13.2685 24.0735 13.2929 24.1119 13.3146 24.1472C13.3511 24.2064 13.3996 24.2905 13.4414 24.363C13.4653 24.4044 13.487 24.442 13.5031 24.4692C13.6183 24.6637 13.7361 24.8344 13.9143 24.9903C14.2555 25.2888 14.9753 25.665 16.7295 25.665C18.4836 25.665 19.2034 25.2888 19.5446 24.9903C19.7228 24.8344 19.8406 24.6637 19.9558 24.4692C19.9719 24.442 19.9936 24.4044 20.0175 24.363L20.0176 24.3628L20.0177 24.3627C20.0595 24.2903 20.1079 24.2064 20.1443 24.1472C20.166 24.1119 20.1904 24.0735 20.2176 24.0335C20.2689 21.3628 21.0986 19.557 22.0938 18.2775C22.6006 17.6258 23.1391 17.1252 23.6058 16.7276C23.8028 16.5598 23.972 16.4218 24.1191 16.3017L24.1193 16.3015L24.1194 16.3015C24.2389 16.204 24.3439 16.1183 24.4377 16.038C24.38 15.3049 24.1306 14.4078 23.7099 13.4352C23.2308 12.3277 22.5507 11.1716 21.7571 10.124C20.962 9.07455 20.0696 8.15592 19.1758 7.50658C18.2712 6.8494 17.4329 6.51644 16.7295 6.51644C16.026 6.51644 15.1877 6.8494 14.2831 7.50658C13.4542 8.10877 12.6265 8.94256 11.8765 9.89755L11.5295 10.4181L10.4706 12.0064ZM7.92104 10.7824C8.30825 10.5572 8.7854 10.3924 9.62176 10.494C9.45905 10.751 9.30327 11.0109 9.15533 11.2724C8.81338 11.7571 8.46643 12.0381 8.14504 12.1975C7.80366 12.3668 7.44914 12.4198 7.08583 12.3913C6.75586 12.3655 6.42395 12.2726 6.10657 12.1418C6.32944 11.9929 6.53035 11.8419 6.71615 11.6955C6.86018 11.5821 6.9879 11.478 7.10572 11.382C7.40667 11.1367 7.64293 10.9442 7.92104 10.7824ZM25.7221 10.7824C25.3272 10.5527 24.8388 10.3859 23.9712 10.5003L24.4206 11.1744C24.7841 11.7197 25.1556 12.0276 25.4981 12.1975C25.8394 12.3668 26.194 12.4198 26.5573 12.3913C26.8872 12.3655 27.2191 12.2726 27.5365 12.1418C27.3137 11.9929 27.1127 11.8419 26.927 11.6955C26.783 11.5821 26.6553 11.478 26.5375 11.382L26.5374 11.382C26.2364 11.1367 26.0002 10.9442 25.7221 10.7824Z" fill="#8CA4B5"></path><path d="M18.2346 23.7571C19.1313 24.313 19.7346 25.352 19.7346 26.542C19.7346 28.3176 18.3915 29.7571 16.7346 29.7571C15.0778 29.7571 13.7346 28.3176 13.7346 26.542C13.7346 25.352 14.3379 24.313 15.2346 23.7571" stroke="#8CA4B5" stroke-width="1.1"></path></svg>