<svg width="33" height="32" viewBox="0 0 33 32" fill="none" xmlns="http://www.w3.org/2000/svg" class="transform cursor-pointer transition-all" style="width: 40px; height: 40px;"><path d="M23 25.4V22L17 9L11 22V25.4" stroke="#8CA4B5" stroke-width="1.5" stroke-linecap="round" stroke-linejoin="round"></path><path d="M17 24C17 23.2044 17.3161 22.4413 17.8787 21.8787C18.4413 21.3161 19.2044 21 20 21C20.7956 21 21.5587 21.3161 22.1213 21.8787C22.6839 22.4413 23 23.2044 23 24" stroke="#8CA4B5" stroke-width="1.5" stroke-linecap="round" stroke-linejoin="round"></path><path d="M17 27V24C17 23.2044 16.6839 22.4413 16.1213 21.8787C15.5587 21.3161 14.7956 21 14 21C13.2044 21 12.4413 21.3161 11.8787 21.8787C11.3161 22.4413 11 23.2044 11 24" stroke="#8CA4B5" stroke-width="1.5" stroke-linecap="round" stroke-linejoin="round"></path><path d="M14 15.5H20" stroke="#8CA4B5" stroke-width="1.5" stroke-linecap="round" stroke-linejoin="round"></path><circle cx="17" cy="16" r="12" stroke="#8CA4B5" stroke-width="1.5"></circle><path d="M17 7L20.6055 15H13.3998L17 7Z" fill="#8CA4B5"></path></svg>